<svg xmlns="http://www.w3.org/2000/svg" viewBox="0 0 1138.68 821.09"><defs><style>.cls-1{fill:#f36b80;}.cls-2{fill:#5c407b;}.cls-3{fill:#e4c4ff;}.cls-4{fill:#8b5dd0;}.cls-5{fill:#f2f2f2;}.cls-6{fill:#31dae7;}.cls-7{fill:#e25a74;}.cls-8{fill:#34bed1;}.cls-9{fill:#e1dde7;}.cls-10{fill:#fff;}.cls-11{fill:#86b1f2;}.cls-12{fill:#b984f9;}</style></defs><g id="Layer_2" data-name="Layer 2"><g id="Layer_1-2" data-name="Layer 1"><path class="cls-1" d="M379.4,808.16s-74.8-253.53-80.8-309.45,35.82-38.59,35.82-38.59-35.18-106.56-9.74-131.86,48.4,21.85,48.4,21.85,7.7-129.35,34.82-129.4c50.53-.09,49.54,141.08,49.54,141.08s12.89-55.27,39.95-40.12c40.8,22.85-17.71,133.61-17.71,133.61s52,0,70.25,26.25C582.69,528.56,379.4,808.16,379.4,808.16Z"/><path class="cls-2" d="M403.85,774.6s-215.63-36.06-262.53-74.26-.48-55.44-.48-55.44S32.52,589.37,33.77,551.61s55.07-18.56,55.07-18.56S-2.43,429,19.17,409.21c40.25-36.82,145.77,71.37,145.77,71.37S133.61,429.13,166.6,421c49.77-12.28,86.49,114.59,86.49,114.59s-9.33-50.11,25-43.43C339.64,504.12,403.85,774.6,403.85,774.6Z"/><path class="cls-3" d="M278.07,492.15c-34.4-6.22-25,43.43-25,43.43S216.37,408.71,166.6,421c-33,8.14-1.66,59.59-1.66,59.59S59.42,372.39,19.17,409.21l384,365.45C396.29,739.76,335.74,502.58,278.07,492.15Z"/><path class="cls-2" d="M465.2,804.34S351.64,688.86,294.46,676.83s-46.91,28.67-46.91,28.67S134.1,606.28,107.8,630.32,110,677.57,110,677.57s-94.51-16.75-108,14.26c-20.79,47.66,134.64,73.6,134.64,73.6s-65.13,4.51-50,34.39C109.31,844.88,465.2,804.34,465.2,804.34Z"/><path class="cls-4" d="M1.91,691.83c13.53-31,108-14.26,108-14.26s-28.44-23.21-2.15-47.25S244,692,244,692s-25.92-49.54,31.26-37.52S465.2,804.34,465.2,804.34Z"/><path class="cls-5" d="M528.08,60c-38.22,6.29-49.57,56.46-17.8,78.9a29.14,29.14,0,0,1,11.34,16.88l5.79,23.33a12.7,12.7,0,0,0,14.4,9.48l14.48-2.38a12.7,12.7,0,0,0,10.6-13.59c-2-24.1-4.5-32.84,3.34-43.58C593.13,97.57,566.32,53.68,528.08,60Z"/><path class="cls-6" d="M532,162c-2.48-20.65-6-42.44-7.17-48.62-21.91,1.21-13.58-21.88-3.47-12.49,2.88,2.67,4.24,6.3,5.14,10.28a56.76,56.76,0,0,0,20.88-6.08c-.35-5.09-.85-9,.57-12.21,2.14-4.92,8.38-6.26,10.92-1.46a7.67,7.67,0,0,1,.43,6c-1.47,4.07-5.9,6.76-9.75,8.86,1.15,16.41,2.75,33,4.76,49.23l-2.07.26c-2-16-3.56-32.29-4.7-48.44a58.69,58.69,0,0,1-20.62,5.88c1.5,7.91,4.82,29.15,7.15,48.53Zm-17.57-53.48c1.94,2.09,5.21,3,10,2.8-.83-3.51-2-6.66-4.46-8.91C514.48,97.33,511.14,105,514.41,108.49Zm35.43-14.8c-1.2,2.73-.74,6.24-.47,10.27,3.13-1.78,6.77-4,8-7.27.82-2.29-.11-5.52-2.44-6.12C554.63,90.51,550.68,91.77,549.84,93.69Z"/><path class="cls-6" d="M521.45,155.17a5.54,5.54,0,0,1,.17.58l5.79,23.33a12.72,12.72,0,0,0,14.4,9.49l14.48-2.39a12.7,12.7,0,0,0,10.6-13.59c-.89-10.72-1.88-18.4-2-24.57Z"/><path class="cls-5" d="M499.75,42.55,488.32,21.68a4.17,4.17,0,1,1,7.31-4l11.43,20.86a4.17,4.17,0,0,1-7.31,4Z"/><path class="cls-5" d="M474.77,93l-24.92-2.18a4.17,4.17,0,1,1,.73-8.31l24.91,2.18a4.17,4.17,0,0,1-.72,8.31Z"/><path class="cls-5" d="M450.06,169.4a4.16,4.16,0,0,1,0-5.89,135.21,135.21,0,0,1,20-16.33,4.17,4.17,0,0,1,4.63,6.93A128,128,0,0,0,456,169.44,4.17,4.17,0,0,1,450.06,169.4Z"/><path class="cls-5" d="M561.31,41.42a4.16,4.16,0,0,1-2.95-5.1A159.17,159.17,0,0,0,563.5,4a4.17,4.17,0,0,1,8.32.44,167.18,167.18,0,0,1-5.41,34.08A4.16,4.16,0,0,1,561.31,41.42Z"/><path class="cls-5" d="M587,73.45a4.17,4.17,0,0,1,2.79-5.2l25.9-7.8a4.17,4.17,0,0,1,2.4,8l-25.9,7.81A4.16,4.16,0,0,1,587,73.45Z"/><path class="cls-5" d="M629.52,142.37a4,4,0,0,1-1.13-.16,130.76,130.76,0,0,1-25.94-10.39,4.17,4.17,0,0,1,3.91-7.37,122.23,122.23,0,0,0,24.28,9.74,4.17,4.17,0,0,1-1.12,8.18Z"/><path class="cls-7" d="M1016.21,811H387.56c-24,0-43.48-20.18-43.48-45.09V739.09c0-24.91,19.47-45.1,43.48-45.1h628.65c-28.76,32.6-29.25,82.43-1.15,115.64Z"/><path class="cls-5" d="M1006.5,707.4H657.82c-24,0-43.47,20.19-43.47,45.09h0c0,24.91,19.46,45.1,43.47,45.1h348.71A89.47,89.47,0,0,1,1006.5,707.4Z"/><path class="cls-4" d="M795.36,612.73a2.61,2.61,0,0,0-2.59-3.69H460.12c-26.07,0-47.2,19-47.2,42.48h0c0,23.47,21.13,42.49,47.2,42.49H792.86a2.62,2.62,0,0,0,2.59-3.72h0A81.39,81.39,0,0,1,795.36,612.73Z"/><path class="cls-5" d="M793.26,616.94H628.4c-30.6,0-55.41,15.94-55.41,35.61s24.81,35.6,55.41,35.6H794.34A81.28,81.28,0,0,1,793.26,616.94Z"/><path class="cls-8" d="M750.68,633.82H729.21c-4.62,0-8.36,1.55-8.36,3.46v.31h29.83Z"/><path class="cls-6" d="M769,642.5c0-4.79-5.61-8.68-12.53-8.68H728.92c5.24,0,9.5,2.95,9.5,6.59l-.13,93.08,15.22-12,15.52,12Z"/><path class="cls-5" d="M734.2,606H540.65c-17.16,0-31.07-16.51-31.07-36.88h0c0-20.37,13.91-36.89,31.07-36.89H734.2c-14.79,20.45-15.37,50.45-1.38,71.67Z"/><path class="cls-2" d="M509.59,569.09h0c0-20.37,14.25-36.89,31.81-36.89H737.89a1.8,1.8,0,0,0,1.65-1.93h0a1.79,1.79,0,0,0-1.65-1.89H426.19c-19.39,0-35.1,18.22-35.1,40.71h0c0,22.48,15.71,40.7,35.1,40.7h311.7a1.79,1.79,0,0,0,1.65-1.89h0a1.81,1.81,0,0,0-1.65-1.93H541.4C523.84,606,509.59,589.46,509.59,569.09Z"/><path class="cls-8" d="M700.4,550.33H678.93c-4.61,0-8.36,1.52-8.36,3.39V554H700.4Z"/><path class="cls-6" d="M718.72,558.84c0-4.7-5.61-8.51-12.53-8.51H678.64c5.25,0,9.5,2.89,9.5,6.46L688,648.07l15.22-11.74,15.52,11.74Z"/><path class="cls-9" d="M854.12,377.4,663.26,341.86a7.06,7.06,0,0,1-5.64-8.24l23.91-128.39a7.06,7.06,0,0,1,8.23-5.65l190.86,35.54a7,7,0,0,1,5.64,8.23l-23.9,128.4A7.07,7.07,0,0,1,854.12,377.4Z"/><path class="cls-9" d="M763.27,230.61,705.18,219.8a7.06,7.06,0,0,1-5.65-8.24L703.17,192a7,7,0,0,1,8.23-5.65l58.09,10.82a7,7,0,0,1,5.65,8.23L771.51,225A7.06,7.06,0,0,1,763.27,230.61Z"/><path class="cls-5" d="M862.81,372.49a7.05,7.05,0,0,1-8.08,5L662.62,341.74a7.08,7.08,0,0,1-5.74-7.56l10.06-115.09a7.06,7.06,0,0,1,8.32-6.33L888.67,252.5a7.05,7.05,0,0,1,5.5,8.86Z"/><path class="cls-6" d="M319.94,156.83,114.84,230a12.71,12.71,0,0,1-16.24-7.7L60.74,116.17a12.71,12.71,0,0,1,7.7-16.24l205.1-73.17a12.71,12.71,0,0,1,16.24,7.7l37.86,106.13A12.71,12.71,0,0,1,319.94,156.83Z"/><path class="cls-10" d="M184,129.55a40.65,40.65,0,1,1-51.94-24.63A40.65,40.65,0,0,1,184,129.55Z"/><path class="cls-11" d="M151.54,123.86a12,12,0,1,1-15.32-7.26A12,12,0,0,1,151.54,123.86Z"/><path class="cls-11" d="M145,145.76h9.9a14.2,14.2,0,0,1,14.2,14.2v4.3a0,0,0,0,1,0,0h-38.3a0,0,0,0,1,0,0V160A14.2,14.2,0,0,1,145,145.76Z" transform="translate(-43.36 59.38) rotate(-19.63)"/><path class="cls-10" d="M189.05,107.36a5.18,5.18,0,0,1-1.74-10.06l89.66-32a5.18,5.18,0,1,1,3.48,9.76l-89.66,32A5.18,5.18,0,0,1,189.05,107.36Z"/><path class="cls-10" d="M213.25,129.72a5.19,5.19,0,0,1-1.74-10.07l70-25a5.18,5.18,0,0,1,6.62,3.14,5.18,5.18,0,0,1-3.14,6.62l-70,25A5.14,5.14,0,0,1,213.25,129.72Z"/><path class="cls-6" d="M850.09,449.28H354.85A27.83,27.83,0,0,0,327,477.12v23.42a27.84,27.84,0,0,0,27.84,27.85H850.09l-.26-.27A56.71,56.71,0,0,1,850.09,449.28Z"/><path class="cls-5" d="M841.32,461H576.58a27.84,27.84,0,0,0-27.85,27.84h0a27.85,27.85,0,0,0,27.85,27.85H841.32A56.8,56.8,0,0,1,841.32,461Z"/><path class="cls-5" d="M931.94,598.22,894.4,504a9.23,9.23,0,0,1,5.16-12l135.08-53.84a9.23,9.23,0,0,1,12,5.16l37.54,94.18a9.23,9.23,0,0,1-5.16,12L943.94,603.38A9.23,9.23,0,0,1,931.94,598.22Z"/><path class="cls-6" d="M1059.37,543.76l-33.73-84.63a2.64,2.64,0,0,1,1.48-3.44h0a2.64,2.64,0,0,1,3.44,1.48l33.73,84.63a2.65,2.65,0,0,1-1.48,3.44h0A2.65,2.65,0,0,1,1059.37,543.76Z"/><path class="cls-6" d="M1043.3,532.61l-27.7-69.48a2.65,2.65,0,0,1,1.48-3.44h0a2.64,2.64,0,0,1,3.44,1.48l27.7,69.48a2.65,2.65,0,0,1-1.48,3.44h0A2.64,2.64,0,0,1,1043.3,532.61Z"/><path class="cls-6" d="M1039.3,551.76l-33.74-84.63a2.65,2.65,0,0,1,1.49-3.44h0a2.64,2.64,0,0,1,3.44,1.48l33.73,84.63a2.65,2.65,0,0,1-1.48,3.44h0A2.65,2.65,0,0,1,1039.3,551.76Z"/><path class="cls-6" d="M1021.57,536.45l-26-65.32a2.65,2.65,0,0,1,1.48-3.44h0a2.64,2.64,0,0,1,3.44,1.48l26,65.32a2.65,2.65,0,0,1-1.48,3.44h0A2.65,2.65,0,0,1,1021.57,536.45Z"/><path class="cls-6" d="M1058.46,450.1l-.68-1.7a1.18,1.18,0,0,0-1.52-.71l-12.82,5.11a1.19,1.19,0,0,0-.62,1.56l.68,1.71a1.21,1.21,0,0,0,1.53.71l12.82-5.11A1.2,1.2,0,0,0,1058.46,450.1Z"/><path class="cls-6" d="M1061.37,457.39l-.68-1.7a1.18,1.18,0,0,0-1.52-.71l-12.82,5.11a1.19,1.19,0,0,0-.62,1.56l.68,1.71a1.18,1.18,0,0,0,1.52.7l12.82-5.1A1.2,1.2,0,0,0,1061.37,457.39Z"/><path class="cls-6" d="M1064.27,464.68l-.68-1.7a1.18,1.18,0,0,0-1.52-.71l-12.82,5.11a1.18,1.18,0,0,0-.61,1.56l.67,1.7a1.19,1.19,0,0,0,1.53.71l12.82-5.11A1.18,1.18,0,0,0,1064.27,464.68Z"/><path class="cls-6" d="M1067.18,472l-.68-1.7a1.18,1.18,0,0,0-1.52-.71l-12.82,5.11a1.19,1.19,0,0,0-.62,1.56l.68,1.7a1.18,1.18,0,0,0,1.52.71l12.82-5.11A1.19,1.19,0,0,0,1067.18,472Z"/><path class="cls-6" d="M1070.08,479.26l-.68-1.7a1.18,1.18,0,0,0-1.52-.71L1055.06,482a1.18,1.18,0,0,0-.61,1.56l.68,1.7a1.18,1.18,0,0,0,1.52.71l12.82-5.11A1.18,1.18,0,0,0,1070.08,479.26Z"/><path class="cls-6" d="M1073,486.55l-.68-1.7a1.18,1.18,0,0,0-1.52-.71L1058,489.25a1.19,1.19,0,0,0-.62,1.56l.68,1.7a1.18,1.18,0,0,0,1.52.71l12.82-5.11A1.19,1.19,0,0,0,1073,486.55Z"/><path class="cls-6" d="M1075.89,493.84l-.67-1.7a1.19,1.19,0,0,0-1.53-.71l-12.82,5.11a1.18,1.18,0,0,0-.61,1.56l.68,1.7a1.18,1.18,0,0,0,1.52.71l12.82-5.11A1.18,1.18,0,0,0,1075.89,493.84Z"/><path class="cls-6" d="M1078.8,501.13l-.68-1.7a1.18,1.18,0,0,0-1.52-.71l-12.82,5.11a1.19,1.19,0,0,0-.62,1.56l.68,1.7a1.18,1.18,0,0,0,1.52.71l12.82-5.11A1.19,1.19,0,0,0,1078.8,501.13Z"/><path class="cls-6" d="M1081.71,508.42l-.68-1.7a1.19,1.19,0,0,0-1.53-.71l-12.82,5.11a1.18,1.18,0,0,0-.61,1.56l.68,1.7a1.18,1.18,0,0,0,1.52.71l12.82-5.11A1.19,1.19,0,0,0,1081.71,508.42Z"/><path class="cls-6" d="M1084.61,515.71l-.68-1.7a1.18,1.18,0,0,0-1.52-.71l-12.82,5.11A1.19,1.19,0,0,0,1069,520l.68,1.7a1.18,1.18,0,0,0,1.52.71l12.83-5.11A1.18,1.18,0,0,0,1084.61,515.71Z"/><path class="cls-6" d="M1087.52,523l-.68-1.71a1.18,1.18,0,0,0-1.52-.7l-12.83,5.1a1.2,1.2,0,0,0-.61,1.57l.68,1.7a1.18,1.18,0,0,0,1.52.71l12.82-5.11A1.19,1.19,0,0,0,1087.52,523Z"/><path class="cls-6" d="M1090.42,530.29l-.68-1.71a1.2,1.2,0,0,0-1.52-.71L1075.4,533a1.19,1.19,0,0,0-.61,1.57l.67,1.7a1.18,1.18,0,0,0,1.52.71l12.83-5.11A1.18,1.18,0,0,0,1090.42,530.29Z"/><path class="cls-1" d="M1125.84,522.79l-53.61,76.34a2,2,0,0,0-.28.56l-5.46,16.77a2.1,2.1,0,0,0,3.26,2.33L1084.1,608a2,2,0,0,0,.45-.47L1138.3,531a2.1,2.1,0,0,0-.59-3l-9-5.76A2.11,2.11,0,0,0,1125.84,522.79Z"/><path class="cls-5" d="M1084.49,607.58l-.13.19-13.85,10.44-3.77-2.53,5.18-15.9C1076,602,1080.84,604.28,1084.49,607.58Z"/><path class="cls-12" d="M833.06,23.32c7.72,6.16,21.15,26,38.28,39.9,10,8.14,17.73,6.07,30.52,7.61,60.69,7.34,44.24,19.74,51.52,21-2.07,4.76-21,44.94-24.51,53.07-3.26,7.49-8.89,10.84-17,9.71-12.55-1.73-25.21-3-37.57-5.7-31.67-6.87-49.29-22.71-72-41.95-6-5.1-7.5-11.47-4.38-18.68C812.41,54.67,831.49,26.41,833.06,23.32Z"/><path class="cls-3" d="M960,140.13c-.27,13.23.74,15.88-4.94,13.88a79.7,79.7,0,0,1-10-4.45c-2.28-1.18-2.37-2.73-.52-4.59,2.69-2.7,5.46-5.34,8.15-8A11.71,11.71,0,0,1,957.83,123c1-.58.27.65,8.72-18.8-27.95-3.45-47.66-5.76-81.76-10a45.84,45.84,0,0,1-24.27-10.56q-36.53-30.55-73-61.15c-3.3-2.77-3.72-6.82-1.1-9.94,2-2.39,4.67-2.5,7.52-2.14,7.78,1,84.07,10.45,91.82,11.36a50.16,50.16,0,0,1,27,11.61q35.88,30,71.86,60c3.29,2.75,4.18,5.26,3,8.32-1.26,3.35-4,4.95-8.22,4-3-.65-4.36.26-5.4,3.06-4.7,12.65-8,15.45-6.85,20.07C968,132.41,963.78,138.58,960,140.13Z"/></g></g></svg>