<svg width="20" height="20" viewBox="0 0 20 20" fill="none" xmlns="http://www.w3.org/2000/svg">
<path fill-rule="evenodd" clip-rule="evenodd" d="M15 2H6C4.34315 2 3 3.34315 3 5V15C3 16.6569 4.34315 18 6 18H15C16.6569 18 18 16.6569 18 15V5C18 3.34315 16.6569 2 15 2ZM6 0C3.23858 0 1 2.23858 1 5V15C1 17.7614 3.23858 20 6 20H15C17.7614 20 20 17.7614 20 15V5C20 2.23858 17.7614 0 15 0H6Z" fill="#814FEB"/>
<path fill-rule="evenodd" clip-rule="evenodd" d="M5 19V1H7V19H5Z" fill="#814FEB"/>
<path fill-rule="evenodd" clip-rule="evenodd" d="M16 6C16 6.55228 15.5523 7 15 7H10C9.44772 7 9 6.55228 9 6C9 5.44772 9.44772 5 10 5H15C15.5523 5 16 5.44772 16 6Z" fill="#814FEB"/>
<path fill-rule="evenodd" clip-rule="evenodd" d="M14 10C14 10.5523 13.5523 11 13 11H10C9.44772 11 9 10.5523 9 10C9 9.44772 9.44772 9 10 9H13C13.5523 9 14 9.44772 14 10Z" fill="#814FEB"/>
</svg>
