<svg width="20" height="18" viewBox="0 0 20 18" fill="none" xmlns="http://www.w3.org/2000/svg">
<path d="M0 2C0 1.17157 0.671573 0.5 1.5 0.5H18.5C19.3284 0.5 20 1.17157 20 2C20 2.82843 19.3284 3.5 18.5 3.5H1.5C0.671573 3.5 0 2.82843 0 2Z" fill="#616161"/>
<path d="M0 9C0 8.17157 0.671573 7.5 1.5 7.5H11.5C12.3284 7.5 13 8.17157 13 9C13 9.82843 12.3284 10.5 11.5 10.5H1.5C0.671573 10.5 0 9.82843 0 9Z" fill="#616161"/>
<path d="M0 16C0 15.1716 0.671573 14.5 1.5 14.5H4.5C5.32843 14.5 6 15.1716 6 16C6 16.8284 5.32843 17.5 4.5 17.5H1.5C0.671573 17.5 0 16.8284 0 16Z" fill="#616161"/>
</svg>
