<svg width="20" height="22" viewBox="0 0 20 22" fill="none" xmlns="http://www.w3.org/2000/svg">
<path d="M10 4C5.0374 4 1 8.0374 1 13C1 17.9626 5.0374 22 10 22C14.9626 22 19 17.9626 19 13C19 8.0374 14.9626 4 10 4ZM10 20.2C6.0301 20.2 2.8 16.9699 2.8 13C2.8 9.0301 6.0301 5.8 10 5.8C13.9699 5.8 17.2 9.0301 17.2 13C17.2 16.9699 13.9699 20.2 10 20.2Z" fill="#FF6C0A"/>
<rect x="6" width="8" height="2" rx="1" fill="#FF6C0A"/>
<rect width="6" height="2" rx="1" transform="matrix(0.672673 -0.73994 0.672673 0.73994 9 12.4395)" fill="#FF6C0A"/>
</svg>
